<svg width="448" height="512" viewBox="0 0 448 512" fill="none" xmlns="http://www.w3.org/2000/svg">
<g clip-path="url(#clip0_219_550)">
<path d="M416 160H344V120C344 53.83 290.2 0 224 0C157.8 0 104 53.83 104 120V160H32C14.33 160 0 174.3 0 192V432C0 476.2 35.82 512 80 512H368C412.18 512 448 476.18 448 432V192C448 174.3 433.7 160 416 160ZM152 120C152 80.3 184.3 48 224 48C263.7 48 296 80.3 296 120V160H152V120ZM128 248C114.8 248 104 237.3 104 224C104 210.7 114.8 200 128 200C141.2 200 152 210.8 152 224C152 237.2 141.3 248 128 248ZM320 248C306.75 248 296 237.25 296 224C296 210.75 306.8 200 320 200C333.2 200 344 210.8 344 224C344 237.2 333.3 248 320 248Z" fill="#050505"/>
</g>
<defs>
<clipPath id="clip0_219_550">
<rect width="448" height="512" fill="white"/>
</clipPath>
</defs>
</svg>
