<svg width="319" height="61" viewBox="0 0 319 61" fill="none" xmlns="http://www.w3.org/2000/svg">
<g clip-path="url(#clip0_18_47)">
<path d="M1.05682 60V1.81818H13.358V25.8239H38.3295V1.81818H50.6023V60H38.3295V35.9659H13.358V60H1.05682ZM57.3352 1.81818H71.1136L84.3807 26.875H84.9489L98.2159 1.81818H111.994L90.7727 39.4318V60H78.5568V39.4318L57.3352 1.81818ZM118.713 60V1.81818H141.668C146.08 1.81818 149.84 2.66098 152.946 4.34659C156.052 6.01326 158.42 8.33333 160.048 11.3068C161.696 14.2614 162.52 17.6705 162.52 21.5341C162.52 25.3977 161.687 28.8068 160.02 31.7614C158.353 34.7159 155.938 37.017 152.776 38.6648C149.632 40.3125 145.825 41.1364 141.355 41.1364H126.724V31.2784H139.366C141.734 31.2784 143.685 30.8712 145.219 30.0568C146.772 29.2235 147.927 28.0777 148.685 26.6193C149.461 25.142 149.849 23.447 149.849 21.5341C149.849 19.6023 149.461 17.9167 148.685 16.4773C147.927 15.0189 146.772 13.892 145.219 13.0966C143.666 12.2822 141.696 11.875 139.31 11.875H131.014V60H118.713ZM170.51 60V1.81818H209.714V11.9602H182.811V25.8239H207.697V35.9659H182.811V49.858H209.828V60H170.51ZM219.494 60V1.81818H258.017V11.9602H231.795V25.8239H255.46V35.9659H231.795V60H219.494ZM262.882 1.81818H276.661L289.928 26.875H290.496L303.763 1.81818H317.541L296.32 39.4318V60H284.104V39.4318L262.882 1.81818Z" fill="#FF96C7"/>
</g>
<defs>
<clipPath id="clip0_18_47">
<rect width="319" height="61" fill="white"/>
</clipPath>
</defs>
</svg>
