<svg width="319" height="65" viewBox="0 0 319 65" fill="none" xmlns="http://www.w3.org/2000/svg">
<g clip-path="url(#clip0_18_24)">
<path d="M1.05682 62V3.81818H13.358V27.8239H38.3295V3.81818H50.6023V62H38.3295V37.9659H13.358V62H1.05682ZM57.3352 3.81818H71.1136L84.3807 28.875H84.9489L98.2159 3.81818H111.994L90.7727 41.4318V62H78.5568V41.4318L57.3352 3.81818ZM118.713 62V3.81818H141.668C146.08 3.81818 149.84 4.66098 152.946 6.34659C156.052 8.01326 158.42 10.3333 160.048 13.3068C161.696 16.2614 162.52 19.6705 162.52 23.5341C162.52 27.3977 161.687 30.8068 160.02 33.7614C158.353 36.7159 155.938 39.017 152.776 40.6648C149.632 42.3125 145.825 43.1364 141.355 43.1364H126.724V33.2784H139.366C141.734 33.2784 143.685 32.8712 145.219 32.0568C146.772 31.2235 147.927 30.0777 148.685 28.6193C149.461 27.142 149.849 25.447 149.849 23.5341C149.849 21.6023 149.461 19.9167 148.685 18.4773C147.927 17.0189 146.772 15.892 145.219 15.0966C143.666 14.2822 141.696 13.875 139.31 13.875H131.014V62H118.713ZM170.51 62V3.81818H209.714V13.9602H182.811V27.8239H207.697V37.9659H182.811V51.858H209.828V62H170.51ZM219.494 62V3.81818H258.017V13.9602H231.795V27.8239H255.46V37.9659H231.795V62H219.494ZM262.882 3.81818H276.661L289.928 28.875H290.496L303.763 3.81818H317.541L296.32 41.4318V62H284.104V41.4318L262.882 3.81818Z" fill="#050505"/>
</g>
<defs>
<clipPath id="clip0_18_24">
<rect width="319" height="65" fill="white"/>
</clipPath>
</defs>
</svg>
